<svg width="24" height="24" viewBox="0 0 24 24" fill="none" xmlns="http://www.w3.org/2000/svg">
<g id="u:check">
<rect width="24" height="24" fill="#A51505"/>
<path id="Vector" d="M18.71 7.20986C18.617 7.11613 18.5064 7.04174 18.3846 6.99097C18.2627 6.9402 18.132 6.91406 18 6.91406C17.868 6.91406 17.7373 6.9402 17.6154 6.99097C17.4936 7.04174 17.383 7.11613 17.29 7.20986L9.84 14.6699L6.71 11.5299C6.61347 11.4366 6.49953 11.3633 6.37468 11.3141C6.24982 11.2649 6.1165 11.2408 5.98232 11.2431C5.84814 11.2454 5.71573 11.2741 5.59265 11.3276C5.46957 11.3811 5.35823 11.4583 5.265 11.5549C5.17176 11.6514 5.09844 11.7653 5.04924 11.8902C5.00004 12.015 4.9759 12.1484 4.97823 12.2825C4.98055 12.4167 5.00928 12.5491 5.06277 12.6722C5.11626 12.7953 5.19347 12.9066 5.29 12.9999L9.13 16.8399C9.22296 16.9336 9.33356 17.008 9.45542 17.0588C9.57728 17.1095 9.70798 17.1357 9.84 17.1357C9.97201 17.1357 10.1027 17.1095 10.2246 17.0588C10.3464 17.008 10.457 16.9336 10.55 16.8399L18.71 8.67986C18.8115 8.58622 18.8925 8.47257 18.9479 8.34607C19.0033 8.21957 19.0319 8.08296 19.0319 7.94486C19.0319 7.80676 19.0033 7.67015 18.9479 7.54365C18.8925 7.41715 18.8115 7.3035 18.71 7.20986Z" fill="white"/>
</g>
</svg>
